<svg width="475" height="434" viewBox="0 0 475 434" fill="none" xmlns="http://www.w3.org/2000/svg">
<path fill-rule="evenodd" clip-rule="evenodd" d="M24.8978 224.748C24.6457 178.788 -12.4939 130.267 11.2778 90.9314C35.0922 51.525 93.1527 56.7458 136.238 40.5095C173.914 26.3121 207.35 3.95886 247.559 1.89192C296.67 -0.632717 348.949 -0.773114 389.18 27.5068C433.308 58.5257 467.494 107.259 473.684 160.842C479.811 213.876 450.847 263.484 421.601 308.148C394.67 349.277 358.343 382.07 314.395 404.104C270.104 426.309 221.836 435.079 172.33 433.12C116.14 430.896 45.4105 438.079 12.93 392.173C-20.1972 345.353 25.2123 282.101 24.8978 224.748Z" fill="#FCC0AD"/>
</svg>
