<svg width="21" height="16" viewBox="0 0 21 16" fill="none" xmlns="http://www.w3.org/2000/svg">
<path fill-rule="evenodd" clip-rule="evenodd" d="M14.6137 4.30162C14.6137 6.50448 12.9108 8.27083 10.7871 8.27083C8.66337 8.27083 6.96047 6.50448 6.96047 4.30162C6.96047 2.09791 8.66337 0.333252 10.7871 0.333252C12.9108 0.333252 14.6137 2.09791 14.6137 4.30162ZM10.7871 15.3317C7.66781 15.3317 5.00439 14.8217 5.00439 12.7818C5.00439 10.741 7.65072 10.2125 10.7871 10.2125C13.9063 10.2125 16.5698 10.7224 16.5698 12.7632C16.5698 14.8031 13.9234 15.3317 10.7871 15.3317ZM16.2489 4.37446C16.2489 5.49743 15.9241 6.54355 15.3543 7.41322C15.2957 7.50272 15.3478 7.62346 15.4512 7.64203C15.5936 7.66736 15.741 7.68172 15.8907 7.68594C17.3844 7.72646 18.7251 6.72931 19.0955 5.22808C19.6441 2.9982 18.0332 0.996287 15.9819 0.996287C15.7589 0.996287 15.5456 1.02077 15.338 1.06468C15.3095 1.07143 15.2794 1.08494 15.2632 1.11112C15.2436 1.1432 15.2583 1.18626 15.2778 1.21412C15.894 2.10996 16.2489 3.20253 16.2489 4.37446ZM18.7227 9.25005C19.7264 9.45353 20.3865 9.86895 20.66 10.4726C20.8912 10.9683 20.8912 11.5433 20.66 12.038C20.2416 12.9744 18.8928 13.275 18.3686 13.3527C18.2604 13.3695 18.1733 13.2725 18.1847 13.1602C18.4525 10.5655 16.3222 9.33533 15.7711 9.05248C15.7475 9.03981 15.7426 9.02039 15.7451 9.00857C15.7467 9.00013 15.7565 8.98662 15.7744 8.98409C16.9669 8.96129 18.249 9.13015 18.7227 9.25005ZM5.7762 7.68594C5.92598 7.68172 6.0725 7.66821 6.21576 7.64203C6.31914 7.62346 6.37124 7.50272 6.31263 7.41322C5.74283 6.54355 5.41804 5.49743 5.41804 4.37446C5.41804 3.20253 5.77294 2.10996 6.38915 1.21412C6.40868 1.18626 6.42252 1.1432 6.4038 1.11112C6.38752 1.08579 6.35659 1.07143 6.32891 1.06468C6.12052 1.02077 5.90726 0.996287 5.68422 0.996287C3.63293 0.996287 2.02201 2.9982 2.57146 5.22808C2.94184 6.72931 4.2825 7.72646 5.7762 7.68594ZM5.92151 9.00773C5.92395 9.02039 5.91907 9.03897 5.89628 9.05248C5.34438 9.33533 3.21413 10.5655 3.48194 13.1593C3.49334 13.2725 3.40705 13.3687 3.29879 13.3527C2.77457 13.275 1.42577 12.9744 1.00737 12.038C0.775376 11.5424 0.775376 10.9683 1.00737 10.4726C1.28087 9.86895 1.94022 9.45353 2.94388 9.24921C3.41845 9.13015 4.69969 8.96129 5.89302 8.98409C5.91093 8.98662 5.91988 9.00013 5.92151 9.00773Z" fill="#3649F9"/>
</svg>
