<svg width="833" height="979" viewBox="0 0 833 979" fill="none" xmlns="http://www.w3.org/2000/svg">
<rect x="60" y="294" width="712" height="484" fill="white"/>
<path d="M0 74.6673V149.334H416H832V74.6673V0.000643253L658.933 0.26731L486 0.66731L475.2 4.26731C456.4 10.6673 440.533 22.8006 430 38.6673C424 47.734 417.333 63.0673 417.333 68.0006C417.333 69.4673 416.8 70.6673 416 70.6673C415.333 70.6673 414.667 69.4673 414.667 68.0006C414.667 63.0673 408 47.734 402 38.6673C391.467 22.8006 375.6 10.6673 356.8 4.26731L346 0.66731L173.067 0.26731L0 0.000643253V74.6673Z" fill="#D5202A"/>
<path d="M0 392.534C0 577.867 0.4 596.667 4.8 626C30.4 797.867 162.4 936.934 332.667 971.334C364.533 977.734 381.067 979.067 425.333 978.267C469.733 977.467 483.867 975.734 519.6 966.8C600.267 946.4 676.267 899.467 730.267 836.667C783.333 775.067 814.8 706.667 828.267 623.334L831.2 604.667L831.6 405.6L832.133 206.667H416H0V392.534ZM135.333 369.734L193.867 403.6L293.733 576.534C348.667 671.6 393.333 749.734 393.067 750C392.133 750.934 365.6 735.2 357.733 729.2C347.2 720.934 341.733 712.934 310.533 658.934L282 609.6L269.6 602.667C253.333 593.467 243.067 585.867 236 577.6C232.8 573.867 216.933 547.867 200.667 519.734L171.2 468.667L155.867 460C144.133 453.334 138.133 448.8 129.333 440C118.4 429.067 116.933 426.8 89.4667 378.667C73.7333 351.2 60.5333 328.134 60.2667 327.467C59.3333 325.867 63.7333 328.267 135.333 369.734ZM771.333 327.734C770.533 328.4 724.4 355.2 668.667 387.334C612.933 419.334 564.4 447.734 560.933 450.4C557.333 452.934 551.6 458.4 548.133 462.534C544.667 466.667 517.067 513.2 486.667 565.734C456.267 618.267 431.067 660.934 430.533 660.4C427.733 657.467 401.333 610 401.733 608.8C402.133 608 420.133 576.534 441.733 539.067C463.333 501.6 481.733 469.6 482.533 468.134L484 465.467L478.4 467.867C475.2 469.2 459.867 476.4 444.267 483.734C428.667 491.2 414.8 497.6 413.467 498C411.467 498.667 409.067 495.467 400.667 481.2C395.067 471.6 390.933 463.2 391.6 462.667C392.133 462.134 397.6 460 403.733 458L414.667 454.4L409.867 445.867L405.2 437.467L417.2 433.734C423.867 431.734 429.333 429.6 429.333 429.067C429.333 428.4 427.6 425.2 425.333 421.6C423.2 418.134 421.867 414.934 422.4 414.4C423.333 413.467 766.933 327.067 770.667 326.8C771.733 326.667 772 327.067 771.333 327.734ZM255.067 438.934C295.733 462.4 304.667 469.2 314.4 484.4C317.333 488.934 344.4 535.6 374.667 588C404.933 640.4 430 683.734 430.533 684.267C430.933 684.8 457.733 639.334 490 583.334C522.267 527.2 551.467 477.467 554.933 472.8C558.4 468.134 564.533 461.867 568.4 458.934C576.133 452.934 602.8 437.067 603.733 437.867C604 438.267 562 511.734 510.4 601.2C440.133 723.2 416.267 763.467 415.2 762.267C414.267 761.2 245.2 468.8 216.4 418.267C216.133 417.734 216.267 417.334 216.8 417.334C217.333 417.334 234.533 427.067 255.067 438.934Z" fill="#D5202A"/>
</svg>
    