<svg xmlns="http://www.w3.org/2000/svg" width="843" height="994" fill="none"><path fill="#fff" d="M43 144h707v617H43z"/><path fill="#D41B29" d="m22 0-5 1C12 2 6 8 2 14c-2 5-2 10-2 359l1 354 3 9c6 18 13 30 25 42l12 11 166 97 172 99c24 11 61 11 84 0l172-99c181-105 178-103 191-122l9-18c8-19 8 4 7-379V16l-4-5c-6-8-12-10-19-10-4 0-71 17-187 48L443 99c-11 2-24 3-34 2L216 50C29 1 24-1 22 0Zm137 347 70 41 12 20 35 61c-1 1-2 0-81-45-60-35-68-41-79-54-5-7-40-67-40-69l6 2 77 44Zm594-39-99 57-96 56c-14 10-36 30-47 44-10 14-15 21-48 79l-29 47c-1 0-28-44-28-47 0-2 59-105 64-111l7-9 3-4-8-2-73-20 5-23c1-1 6 0 12 2l12 2 2-6c5-18 4-16 9-15l11 2 8 2 4-11c1-6 3-11 4-11 1-1 10 1 19 4 34 9 36 9 57 9 23 0 17 2 116-25l86-23 21-5-12 8ZM598 421c-11 11-25 26-30 33-23 27-24 28-113 184l-34 56a16442 16442 0 0 1-168-292l65 38 18 15c9 10 13 17 52 85l43 77c2 2 3 0 13-16l19-34 52-87c11-15 32-36 48-47 12-9 51-32 53-32l-18 20Zm-414 11 101 58a4078 4078 0 0 1 52 85l-5-3c-68-39-94-54-100-59-14-10-16-13-54-80l-3-6 9 5Zm129 144c19 11 36 21 37 23 3 3 47 79 47 80-1 1-59-33-65-38-8-6-16-14-20-21-9-13-39-66-37-65l38 21Z"/></svg>