<svg width="843" height="994" viewBox="0 0 843 994" fill="none" xmlns="http://www.w3.org/2000/svg">
<rect x="43" y="144" width="707" height="617" fill="white"/>
<path d="M21.848 0.133911C21.1813 0.400578 18.9146 0.933923 16.9146 1.33392C11.9813 2.40059 5.58131 8.13388 2.38131 14.2672C-0.152021 19.3339 -0.152021 23.6006 0.114646 373.067L0.514646 726.801L3.58131 736.134C9.71465 754.134 16.7813 765.867 29.1813 778.134L40.5146 789.467L207.181 885.601C298.915 938.534 376.381 983.067 379.448 984.667C402.781 996.401 439.581 996.401 462.915 984.667C465.981 983.067 543.448 938.534 635.048 885.601C816.381 780.801 812.781 783.201 825.715 763.734C828.915 758.801 833.181 750.934 835.048 746.267C843.048 726.534 842.648 750.001 842.248 366.534L841.848 15.7339L837.715 10.5339C831.981 3.46721 826.381 0.533875 818.781 0.533875C814.781 0.533875 748.381 17.6006 631.848 48.8006C532.515 75.4673 447.581 98.0006 443.048 98.9339C431.848 101.334 419.448 102.001 409.181 100.667C404.381 100.134 317.448 77.4672 215.848 50.4006C28.9146 0.533905 24.248 -0.666089 21.848 0.133911ZM158.915 347.467L229.048 388.001L241.048 408.134C257.715 436.267 276.115 468.934 275.581 469.467C275.048 470.001 273.715 469.334 195.448 424.134C134.515 388.934 126.648 383.467 116.248 369.867C110.781 362.801 75.848 302.801 75.848 300.534C75.848 300.001 78.7813 301.067 82.248 303.067C85.7147 305.201 120.248 325.067 158.915 347.467ZM752.515 307.867C744.381 312.534 700.115 338.134 653.848 364.801C607.715 391.467 564.515 416.801 558.115 421.201C543.581 431.067 522.381 451.067 511.181 465.467C500.648 478.934 495.981 486.401 462.648 544.401C447.715 570.267 434.915 591.467 433.981 591.467C432.515 591.467 406.115 546.667 406.115 544.134C406.115 542.401 465.448 439.334 469.981 433.067C471.715 430.801 474.648 426.801 476.515 424.267L479.848 419.867L471.581 417.601C447.981 411.601 399.581 398.267 399.048 397.734C398.515 397.201 403.581 375.334 404.381 374.534C404.515 374.401 409.581 375.334 415.715 376.801C421.715 378.267 427.181 379.467 427.715 379.467C428.248 379.467 429.315 376.667 430.248 373.067C435.048 355.201 434.115 356.801 438.915 357.601C441.315 358.134 446.381 359.334 450.115 360.401C453.981 361.467 457.581 362.001 458.248 361.601C458.915 361.201 460.515 356.401 461.848 350.667C463.315 345.067 465.181 340.134 466.115 339.867C467.048 339.467 475.715 341.334 485.448 344.001C518.781 352.934 520.648 353.201 541.848 353.334C565.315 353.334 558.781 354.667 657.581 328.134C694.381 318.267 733.181 307.867 743.848 304.934C754.515 302.134 764.115 299.734 765.181 299.601C766.248 299.601 760.515 303.201 752.515 307.867ZM597.848 421.067C587.048 432.134 573.448 447.067 567.581 454.001C545.048 480.934 544.115 482.401 454.515 637.734C436.648 668.801 421.715 694.134 421.181 694.134C420.515 694.134 390.248 642.001 271.448 436.134C260.781 417.734 252.381 402.534 252.648 402.267C253.048 401.734 304.381 431.067 318.115 439.734C322.648 442.667 330.781 449.601 336.115 455.334C345.048 464.801 349.315 472.001 387.715 540.267C410.781 581.201 430.381 615.867 431.315 617.201C432.648 619.334 434.248 617.334 444.248 600.534C450.381 590.001 459.048 575.201 463.448 567.467C485.981 527.734 507.715 490.801 515.048 480.134C525.581 464.534 546.515 443.734 562.515 432.801C574.915 424.401 614.115 401.201 616.381 400.934C616.915 400.801 608.648 409.867 597.848 421.067ZM183.715 431.734C199.315 440.534 279.448 486.667 284.781 489.867C289.715 492.934 293.048 497.867 313.448 533.201C326.115 555.201 336.781 573.734 337.048 574.401C337.315 575.201 334.915 574.267 331.715 572.401C263.848 533.467 237.848 518.001 231.581 513.201C218.248 502.934 215.981 499.601 177.581 433.067C175.715 430.001 174.648 427.467 175.181 427.467C175.715 427.467 179.581 429.334 183.715 431.734ZM312.781 575.734C331.981 586.667 348.781 597.067 350.248 598.534C353.315 602.001 397.448 678.267 396.781 678.934C395.848 679.867 338.115 646.001 331.981 641.067C324.115 634.667 316.381 626.667 311.848 620.134C302.915 607.201 273.181 553.867 275.448 554.667C276.781 555.201 293.581 564.667 312.781 575.734Z" fill="#D41B29"/>
</svg>
